<svg version="1.1" id="Layer_1" xmlns="http://www.w3.org/2000/svg" xmlns:xlink="http://www.w3.org/1999/xlink" x="0px" y="0px"
	 width="100%" viewBox="0 0 336 88" enable-background="new 0 0 336 88" xml:space="preserve">
<path fill="#FFFEFD" opacity="1.000000" stroke="none" 
	d="
M242.000000,89.000000 
	C161.333359,89.000000 81.166718,89.000000 1.000054,89.000000 
	C1.000036,59.666698 1.000036,30.333399 1.000018,1.000073 
	C112.999939,1.000049 224.999878,1.000049 336.999878,1.000025 
	C336.999908,30.333260 336.999908,59.666519 336.999939,88.999893 
	C305.500000,89.000000 274.000000,89.000000 242.000000,89.000000 
M312.122406,68.697052 
	C314.057129,68.697052 315.991882,68.697052 318.451263,68.697052 
	C318.451263,58.113335 318.451263,48.075798 319.280945,37.926121 
	C321.380463,37.809402 323.479980,37.692688 325.666687,37.571125 
	C325.666687,34.746300 325.666687,32.341682 325.666687,29.797644 
	C323.351593,29.539980 321.275879,29.308956 318.730896,29.025705 
	C318.730896,24.367493 318.730896,19.948822 318.730896,15.294514 
	C315.663544,15.294514 313.105896,15.294514 310.016327,15.294514 
	C310.016327,18.633251 310.069122,21.747478 309.997345,24.858831 
	C309.951294,26.855223 310.706390,29.000660 307.469666,29.925333 
	C306.522888,30.195810 306.181854,33.930298 306.342468,36.017097 
	C306.400024,36.765022 308.753815,37.336235 310.088531,38.926544 
	C310.162720,48.283314 310.236908,57.640087 310.174744,67.414124 
	C310.174744,67.414124 310.278564,67.840652 310.177612,68.175316 
	C310.519135,68.322723 310.860626,68.470123 312.122406,68.697052 
M228.374268,30.329338 
	C228.329544,31.218042 228.284805,32.106747 228.133621,33.927376 
	C228.125534,43.881786 228.056564,53.836899 228.171188,63.789894 
	C228.189606,65.388802 229.027695,66.978271 229.962585,68.808990 
	C230.305206,68.751137 230.647842,68.693283 231.835846,68.760010 
	C233.240173,68.659019 234.644501,68.558022 236.159515,68.449066 
	C236.159515,60.959587 236.159515,53.932438 236.201889,46.131668 
	C236.950089,37.617569 242.278305,34.643456 251.082947,38.622398 
	C251.693756,40.095459 252.304565,41.568520 252.788193,43.966675 
	C252.838455,51.642372 252.888702,59.318069 252.935226,67.828987 
	C255.494751,68.251389 258.054260,68.673790 261.627106,69.263420 
	C261.048401,58.096081 260.527618,48.046261 260.050446,37.263947 
	C258.560455,31.621065 254.573425,29.447786 249.067978,28.987427 
	C244.180542,28.578745 239.991608,29.957415 236.229950,32.259003 
	C235.862137,28.085257 232.794708,30.791756 230.504852,30.069775 
	C230.332077,30.108345 230.159286,30.146917 229.518402,30.098707 
	C229.518402,30.098707 229.053345,30.200645 228.374268,30.329338 
M210.008850,65.042450 
	C210.008850,65.042450 210.056335,65.112396 210.861267,65.196884 
	C211.988129,71.239098 216.262360,68.338303 219.552658,68.646942 
	C219.552658,55.569054 219.552658,42.888962 219.552658,30.121017 
	C216.841278,30.121017 214.528503,30.121017 211.971054,30.121017 
	C211.636658,31.341494 211.311325,32.528896 210.945557,33.863834 
	C209.948486,33.195202 209.136719,32.650829 207.990799,31.681923 
	C207.345078,31.422987 206.699356,31.164051 205.555649,30.326160 
	C199.930511,28.327095 194.459961,27.994377 188.956604,32.295925 
	C179.883347,41.628906 177.870651,50.551472 183.347794,60.337257 
	C186.001938,65.079315 189.746567,69.600723 195.887863,69.396393 
	C199.950897,69.261208 203.966858,67.710953 208.591888,66.776016 
	C209.091980,66.202972 209.592072,65.629929 210.008850,65.042450 
M68.725906,36.989159 
	C74.998428,40.064495 81.270950,43.139832 88.347412,46.609329 
	C86.928604,47.636665 85.519196,49.079151 83.806252,49.816322 
	C79.155884,51.817623 74.280418,53.306499 69.670692,55.389183 
	C62.078403,58.819393 62.136978,58.949043 63.498955,67.965782 
	C64.282379,67.899139 65.175041,68.043892 65.859703,67.732010 
	C76.877548,62.713192 87.937111,57.773762 98.779510,52.397449 
	C100.126411,51.729572 100.949417,48.628807 100.824135,46.734127 
	C100.683327,44.604584 99.752708,41.484680 98.189758,40.671623 
	C91.300331,37.087673 84.059151,34.179893 76.476479,30.525377 
	C71.849594,28.464239 67.222710,26.403099 62.431774,24.268879 
	C61.639080,35.092098 61.755188,35.340588 68.725906,36.989159 
M23.982208,28.373482 
	C22.990961,27.954100 21.999716,27.534718 20.489347,26.723534 
	C19.696606,26.400789 18.903864,26.078045 17.641575,25.284758 
	C16.795546,25.293316 15.345457,25.024712 15.195078,25.352455 
	C13.272211,29.543211 15.665704,35.069366 20.699266,37.056229 
	C27.311338,40.150169 33.923412,43.244106 40.962078,46.537655 
	C34.245842,50.024868 28.042973,53.287823 21.801342,56.474865 
	C15.054238,59.920013 14.975713,60.026611 16.791357,68.383026 
	C28.802061,62.928558 40.753166,57.641026 52.560497,52.049858 
	C55.902702,50.467209 55.536091,42.654194 52.021118,41.023373 
	C42.899994,36.791504 33.617130,32.908241 23.982208,28.373482 
M303.941528,46.167938 
	C303.674774,44.710518 303.555084,43.207268 303.117371,41.803131 
	C300.334137,32.874500 295.387909,29.095003 286.500488,28.996019 
	C276.600677,28.885761 271.068726,32.674694 268.044006,41.637150 
	C264.264771,52.835419 268.084290,61.548527 280.731201,69.320320 
	C282.852844,69.500702 285.005798,69.999367 287.089478,69.794128 
	C291.216522,69.387596 295.780396,69.686272 298.745758,64.753143 
	C300.698364,63.097622 302.650940,61.442104 305.000244,59.450245 
	C301.880035,57.571583 299.785461,56.310444 297.458282,54.909267 
	C294.809021,60.858303 290.115173,62.827213 284.189362,62.042496 
	C278.437164,61.280769 274.838470,55.506569 277.937988,51.001797 
	C286.477814,51.001797 295.017609,51.001797 303.857178,51.001797 
	C303.857178,49.466190 303.857178,48.220032 303.941528,46.167938 
M177.338593,41.386715 
	C176.975845,40.459061 176.682968,39.496517 176.239761,38.609051 
	C170.692520,27.501835 156.235916,25.664448 147.067581,34.128712 
	C141.021561,39.710430 140.962875,46.649044 141.824509,53.192936 
	C142.529053,58.544048 144.417191,64.361961 150.677277,67.325432 
	C158.082336,70.830910 165.028702,69.869225 171.725586,66.391754 
	C174.119125,65.148857 176.214371,62.267651 177.076797,59.678276 
	C177.408691,58.681767 173.931488,56.416588 172.143707,54.684765 
	C166.528961,61.726879 162.223618,63.604065 156.927689,61.750584 
	C152.567841,60.224709 150.164749,56.411968 150.399231,50.915478 
	C159.622879,50.915478 168.872604,50.915478 178.672577,50.915478 
	C178.287170,47.656425 177.960815,44.896729 177.338593,41.386715 
M113.969246,67.620247 
	C119.290916,70.690201 125.074554,69.933357 130.043503,67.772179 
	C134.467941,65.847816 138.210037,62.065285 138.121948,56.225956 
	C138.041306,50.880512 135.905762,47.163540 130.760590,45.027760 
	C127.333092,43.604984 123.995193,41.740059 121.046272,39.506512 
	C119.929024,38.660297 120.015480,36.224846 119.553284,34.513775 
	C121.333984,34.187195 123.764687,32.958515 124.781952,33.691486 
	C129.000473,36.731083 131.428741,34.340553 134.365967,31.240843 
	C132.923935,29.620052 131.683838,27.910038 130.137329,26.547941 
	C125.687820,22.629044 117.421394,23.799368 113.029015,28.842896 
	C108.617546,33.908340 108.875771,40.279232 114.057762,44.436939 
	C117.225716,46.978706 120.796959,49.051720 124.320839,51.105789 
	C127.412186,52.907730 129.581177,55.250877 128.718399,58.925617 
	C128.094421,61.583298 122.453629,62.355709 119.419350,60.278034 
	C117.853035,59.205524 116.588196,57.692719 114.973480,56.178478 
	C112.721001,57.695168 110.592087,59.128662 108.062378,60.832020 
	C110.052299,63.225803 111.707428,65.216858 113.969246,67.620247 
z"/>
<path fill="#F19537" opacity="1.000000" stroke="none" 
	d="
M177.486511,41.761871 
	C177.960815,44.896729 178.287170,47.656425 178.672577,50.915478 
	C168.872604,50.915478 159.622879,50.915478 150.399231,50.915478 
	C150.164749,56.411968 152.567841,60.224709 156.927689,61.750584 
	C162.223618,63.604065 166.528961,61.726879 172.143707,54.684765 
	C173.931488,56.416588 177.408691,58.681767 177.076797,59.678276 
	C176.214371,62.267651 174.119125,65.148857 171.725586,66.391754 
	C165.028702,69.869225 158.082336,70.830910 150.677277,67.325432 
	C144.417191,64.361961 142.529053,58.544048 141.824509,53.192936 
	C140.962875,46.649044 141.021561,39.710430 147.067581,34.128712 
	C156.235916,25.664448 170.692520,27.501835 176.239761,38.609051 
	C176.682968,39.496517 176.975845,40.459061 177.486511,41.761871 
M161.458923,36.156059 
	C156.080673,35.995491 152.559219,38.574444 150.035950,43.893028 
	C156.881989,43.893028 163.141846,43.893028 169.858170,43.893028 
	C168.166840,40.058407 166.647888,36.757530 161.458923,36.156059 
z"/>
<path fill="#F19537" opacity="1.000000" stroke="none" 
	d="
M277.011932,50.857986 
	C274.838470,55.506569 278.437164,61.280769 284.189362,62.042496 
	C290.115173,62.827213 294.809021,60.858303 297.458282,54.909267 
	C299.785461,56.310444 301.880035,57.571583 305.000244,59.450245 
	C302.650940,61.442104 300.698364,63.097622 298.067078,64.926529 
	C293.318237,66.070160 289.254089,67.066666 285.175049,67.998085 
	C283.472076,68.386955 281.737457,68.637413 280.017242,68.950806 
	C268.084290,61.548527 264.264771,52.835419 268.044006,41.637150 
	C271.068726,32.674694 276.600677,28.885761 286.500488,28.996019 
	C295.387909,29.095003 300.334137,32.874500 303.117371,41.803131 
	C303.555084,43.207268 303.674774,44.710518 303.669952,46.396225 
	C300.599945,49.729969 296.873077,48.947159 293.361572,48.986183 
	C289.227081,49.032127 285.083130,48.847435 280.961548,49.082523 
	C279.615631,49.159290 278.326843,50.237679 277.011932,50.857986 
M285.536285,44.285500 
	C288.625092,44.285500 291.713867,44.285500 294.887207,44.285500 
	C293.976562,38.997219 290.773376,36.166100 286.200256,36.151382 
	C281.296600,36.135605 277.740814,39.081738 276.637604,44.285835 
	C279.320618,44.285835 281.951141,44.285835 285.536285,44.285500 
z"/>
<path fill="#F19434" opacity="1.000000" stroke="none" 
	d="
M113.665909,67.414078 
	C111.707428,65.216858 110.052299,63.225803 108.062378,60.832020 
	C110.592087,59.128662 112.721001,57.695168 114.973480,56.178478 
	C116.588196,57.692719 117.853035,59.205524 119.419350,60.278034 
	C122.453629,62.355709 128.094421,61.583298 128.718399,58.925617 
	C129.581177,55.250877 127.412186,52.907730 124.320839,51.105789 
	C120.796959,49.051720 117.225716,46.978706 114.057762,44.436939 
	C108.875771,40.279232 108.617546,33.908340 113.029015,28.842896 
	C117.421394,23.799368 125.687820,22.629044 130.137329,26.547941 
	C131.683838,27.910038 132.923935,29.620052 134.365967,31.240843 
	C131.428741,34.340553 129.000473,36.731083 124.781952,33.691486 
	C123.764687,32.958515 121.333984,34.187195 119.553284,34.513779 
	C120.015480,36.224846 119.929024,38.660297 121.046272,39.506512 
	C123.995193,41.740059 127.333092,43.604984 130.760590,45.027760 
	C135.905762,47.163540 138.041306,50.880512 138.121948,56.225956 
	C138.210037,62.065285 134.467941,65.847816 130.043503,67.772179 
	C125.074554,69.933357 119.290916,70.690201 113.665909,67.414078 
z"/>
<path fill="#F19434" opacity="1.000000" stroke="none" 
	d="
M18.111120,25.755302 
	C18.903864,26.078045 19.696606,26.400789 20.822014,27.278111 
	C22.236061,28.183739 23.317440,28.534792 24.398819,28.885843 
	C33.617130,32.908241 42.899994,36.791504 52.021118,41.023373 
	C55.536091,42.654194 55.902702,50.467209 52.560497,52.049858 
	C40.753166,57.641026 28.802061,62.928558 16.791357,68.383026 
	C14.975713,60.026611 15.054238,59.920013 21.801342,56.474865 
	C28.042973,53.287823 34.245842,50.024868 40.962078,46.537655 
	C33.923412,43.244106 27.311338,40.150169 20.266226,36.567947 
	C16.131781,33.159851 16.329647,29.589645 18.111120,25.755302 
z"/>
<path fill="#F19434" opacity="1.000000" stroke="none" 
	d="
M76.945389,31.027172 
	C84.059151,34.179893 91.300331,37.087673 98.189758,40.671623 
	C99.752708,41.484680 100.683327,44.604584 100.824135,46.734127 
	C100.949417,48.628807 100.126411,51.729572 98.779510,52.397449 
	C87.937111,57.773762 76.877548,62.713192 65.859703,67.732010 
	C65.175041,68.043892 64.282379,67.899139 63.498955,67.965782 
	C62.136978,58.949043 62.078403,58.819393 69.670692,55.389183 
	C74.280418,53.306499 79.155884,51.817623 83.806252,49.816322 
	C85.519196,49.079151 86.928604,47.636665 88.347412,46.609329 
	C81.270950,43.139832 74.998428,40.064495 68.292313,36.569942 
	C64.897720,33.947742 62.519470,31.542019 64.904556,27.108927 
	C66.741043,27.975101 68.415901,28.990765 70.230598,29.562725 
	C72.406563,30.248547 74.701797,30.555918 76.945389,31.027172 
z"/>
<path fill="#F19333" opacity="1.000000" stroke="none" 
	d="
M250.824432,37.969631 
	C242.278305,34.643456 236.950089,37.617569 235.850815,46.798203 
	C235.325455,53.074955 235.271240,58.694012 234.859848,64.286797 
	C234.790512,65.229233 233.179413,66.058273 232.280670,66.939713 
	C231.525894,66.079811 230.126801,65.229111 230.114365,64.358604 
	C229.963272,53.782028 230.016327,43.202526 230.016327,31.840378 
	C232.536469,32.291878 234.382889,32.622681 236.229309,32.953476 
	C239.991608,29.957415 244.180542,28.578745 249.067978,28.987427 
	C254.573425,29.447786 258.560455,31.621065 259.726868,37.920723 
	C259.403259,47.883411 259.403259,57.189320 259.403259,66.993767 
	C256.493195,66.993767 254.716080,66.993767 252.938965,66.993767 
	C252.888702,59.318069 252.838455,51.642372 253.132538,43.298401 
	C252.592728,41.076630 251.708572,39.523132 250.824432,37.969631 
z"/>
<path fill="#F19434" opacity="1.000000" stroke="none" 
	d="
M208.003891,66.794220 
	C203.966858,67.710953 199.950897,69.261208 195.887863,69.396393 
	C189.746567,69.600723 186.001938,65.079315 183.347794,60.337257 
	C177.870651,50.551472 179.883347,41.628906 189.591370,32.106911 
	C194.582611,32.075695 195.583557,34.298981 193.895676,38.341454 
	C193.199219,39.065601 192.635818,39.543762 191.859314,40.093460 
	C191.369461,40.308537 191.164948,40.521473 190.692642,41.021889 
	C185.404388,52.598156 190.833206,61.457706 203.159668,62.177956 
	C203.610138,62.204277 204.042068,62.547607 204.720108,62.792847 
	C205.955978,61.851593 206.954391,60.860680 208.098541,59.594856 
	C209.132980,58.204830 210.021698,57.089722 211.332535,55.982998 
	C213.150284,56.672306 214.545898,57.353230 215.941513,58.034149 
	C214.963303,59.514465 214.083450,61.074154 212.974274,62.448803 
	C212.156830,63.461891 211.039856,64.233299 210.056335,65.112396 
	C210.056335,65.112396 210.008850,65.042450 209.737000,65.061745 
	C208.978058,65.652100 208.490967,66.223160 208.003891,66.794220 
z"/>
<path fill="#F1993E" opacity="1.000000" stroke="none" 
	d="
M310.059601,37.988098 
	C308.753815,37.336235 306.400024,36.765022 306.342468,36.017097 
	C306.181854,33.930298 306.522888,30.195810 307.469666,29.925333 
	C310.706390,29.000660 309.951294,26.855223 309.997345,24.858831 
	C310.069122,21.747478 310.016327,18.633251 310.016327,15.294514 
	C313.105896,15.294514 315.663544,15.294514 318.730896,15.294514 
	C318.730896,19.948822 318.730896,24.367493 318.730896,29.025705 
	C321.275879,29.308956 323.351593,29.539980 325.666687,29.797644 
	C325.666687,32.341682 325.666687,34.746300 325.666687,37.571125 
	C323.479980,37.692688 321.380463,37.809402 318.476257,38.181320 
	C317.671570,47.762886 317.671570,57.089252 317.671570,66.694595 
	C314.944489,66.822655 313.495789,66.890686 312.035828,66.492790 
	C312.019836,58.129021 312.112701,50.228825 311.922363,42.335457 
	C311.887085,40.872215 310.709808,39.436516 310.059601,37.988098 
z"/>
<path fill="#F19332" opacity="1.000000" stroke="none" 
	d="
M194.028732,38.095467 
	C195.583557,34.298981 194.582611,32.075695 189.800964,31.872478 
	C194.459961,27.994377 199.930511,28.327095 205.606323,30.884586 
	C204.884064,31.899530 204.111130,32.356045 202.573929,33.263973 
	C205.377899,33.966293 207.565903,36.393333 208.324936,32.106457 
	C209.136719,32.650829 209.948486,33.195202 210.945557,33.863834 
	C211.311325,32.528896 211.636658,31.341494 211.971054,30.121017 
	C214.528503,30.121017 216.841278,30.121017 219.552658,30.121017 
	C219.552658,42.888962 219.552658,55.569054 219.552658,68.646942 
	C216.262360,68.338303 211.988129,71.239098 210.458801,65.154648 
	C211.039856,64.233299 212.156830,63.461891 212.974274,62.448803 
	C214.083450,61.074154 214.963303,59.514465 215.941513,58.034149 
	C214.545898,57.353230 213.150284,56.672306 211.377441,55.571602 
	C213.155441,48.976925 212.282898,42.841965 207.607162,38.699116 
	C204.017288,35.518368 198.687317,35.770718 194.028732,38.095467 
M216.711838,45.458824 
	C216.599945,46.036716 216.488068,46.614609 216.376175,47.192501 
	C216.786270,47.197639 217.196381,47.202778 217.606476,47.207916 
	C217.508774,46.627251 217.411072,46.046589 216.711838,45.458824 
z"/>
<path fill="#F1861A" opacity="1.000000" stroke="none" 
	d="
M236.229630,32.606239 
	C234.382889,32.622681 232.536469,32.291878 230.016327,31.840378 
	C230.016327,43.202526 229.963272,53.782028 230.114365,64.358604 
	C230.126801,65.229111 231.525894,66.079811 232.280670,66.939713 
	C233.179413,66.058273 234.790512,65.229233 234.859848,64.286797 
	C235.271240,58.694012 235.325455,53.074955 235.829620,47.185013 
	C236.159515,53.932438 236.159515,60.959587 236.159515,68.449066 
	C234.644501,68.558022 233.240173,68.659019 231.185730,68.533669 
	C230.186035,68.395584 229.836456,68.483841 229.486862,68.572098 
	C229.027695,66.978271 228.189606,65.388802 228.171188,63.789894 
	C228.056564,53.836899 228.125534,43.881786 228.397705,33.247143 
	C228.792297,31.778156 228.922821,30.989401 229.053345,30.200645 
	C229.053345,30.200645 229.518402,30.098707 229.850250,30.286633 
	C230.460144,30.387466 230.738174,30.300375 231.016220,30.213282 
	C232.794708,30.791756 235.862137,28.085257 236.229630,32.606239 
z"/>
<path fill="#EE8D26" opacity="1.000000" stroke="none" 
	d="
M252.937103,67.411377 
	C254.716080,66.993767 256.493195,66.993767 259.403259,66.993767 
	C259.403259,57.189320 259.403259,47.883411 259.705048,38.286972 
	C260.527618,48.046261 261.048401,58.096081 261.627106,69.263420 
	C258.054260,68.673790 255.494751,68.251389 252.937103,67.411377 
z"/>
<path fill="#F0902C" opacity="1.000000" stroke="none" 
	d="
M277.474976,50.929893 
	C278.326843,50.237679 279.615631,49.159290 280.961548,49.082523 
	C285.083130,48.847435 289.227081,49.032127 293.361572,48.986183 
	C296.873077,48.947159 300.599945,49.729969 303.627777,46.799194 
	C303.857178,48.220032 303.857178,49.466190 303.857178,51.001797 
	C295.017609,51.001797 286.477814,51.001797 277.474976,50.929893 
z"/>
<path fill="#EF9435" opacity="1.000000" stroke="none" 
	d="
M76.710938,30.776276 
	C74.701797,30.555918 72.406563,30.248547 70.230598,29.562725 
	C68.415901,28.990765 66.741043,27.975101 64.904556,27.108927 
	C62.519470,31.542019 64.897720,33.947742 67.928452,36.496826 
	C61.755188,35.340588 61.639080,35.092098 62.431774,24.268879 
	C67.222710,26.403099 71.849594,28.464239 76.710938,30.776276 
z"/>
<path fill="#F18723" opacity="1.000000" stroke="none" 
	d="
M310.074066,38.457321 
	C310.709808,39.436516 311.887085,40.872215 311.922363,42.335457 
	C312.112701,50.228825 312.019836,58.129021 311.601624,66.504044 
	C310.889465,66.986427 310.600281,66.991646 310.311096,66.996857 
	C310.236908,57.640087 310.162720,48.283314 310.074066,38.457321 
z"/>
<path fill="#F1993E" opacity="1.000000" stroke="none" 
	d="
M280.374207,69.135559 
	C281.737457,68.637413 283.472076,68.386955 285.175049,67.998085 
	C289.254089,67.066666 293.318237,66.070160 297.769775,65.079872 
	C295.780396,69.686272 291.216522,69.387596 287.089478,69.794128 
	C285.005798,69.999367 282.852844,69.500702 280.374207,69.135559 
z"/>
<path fill="#ED8211" opacity="1.000000" stroke="none" 
	d="
M310.242920,67.205490 
	C310.600281,66.991646 310.889465,66.986427 311.612854,66.969971 
	C313.495789,66.890686 314.944489,66.822655 317.671570,66.694595 
	C317.671570,57.089252 317.671570,47.762886 318.061401,38.237389 
	C318.451263,48.075798 318.451263,58.113335 318.451263,68.697052 
	C315.991882,68.697052 314.057129,68.697052 311.480377,68.404816 
	C310.651764,68.021950 310.465179,67.931305 310.278564,67.840652 
	C310.278564,67.840652 310.174744,67.414124 310.242920,67.205490 
z"/>
<path fill="#F0902C" opacity="1.000000" stroke="none" 
	d="
M17.876347,25.520031 
	C16.329647,29.589645 16.131781,33.159851 19.908339,36.419472 
	C15.665704,35.069366 13.272211,29.543211 15.195078,25.352455 
	C15.345457,25.024712 16.795546,25.293316 17.876347,25.520031 
z"/>
<path fill="#F19434" opacity="1.000000" stroke="none" 
	d="
M208.157867,31.894190 
	C207.565903,36.393333 205.377899,33.966293 202.573929,33.263973 
	C204.111130,32.356045 204.884064,31.899530 205.855316,31.174065 
	C206.699356,31.164051 207.345078,31.422987 208.157867,31.894190 
z"/>
<path fill="#EE8D26" opacity="1.000000" stroke="none" 
	d="
M250.953690,38.296013 
	C251.708572,39.523132 252.592728,41.076630 253.196121,42.835854 
	C252.304565,41.568520 251.693756,40.095459 250.953690,38.296013 
z"/>
<path fill="#F0902C" opacity="1.000000" stroke="none" 
	d="
M24.190514,28.629662 
	C23.317440,28.534792 22.236061,28.183739 21.081575,27.474010 
	C21.999716,27.534718 22.990961,27.954100 24.190514,28.629662 
z"/>
<path fill="#F09E45" opacity="1.000000" stroke="none" 
	d="
M228.713806,30.264992 
	C228.922821,30.989401 228.792297,31.778156 228.450928,32.781181 
	C228.284805,32.106747 228.329544,31.218042 228.713806,30.264992 
z"/>
<path fill="#F19332" opacity="1.000000" stroke="none" 
	d="
M208.297882,66.785118 
	C208.490967,66.223160 208.978058,65.652100 209.778641,65.068962 
	C209.592072,65.629929 209.091980,66.202972 208.297882,66.785118 
z"/>
<path fill="#F09E45" opacity="1.000000" stroke="none" 
	d="
M229.724731,68.690544 
	C229.836456,68.483841 230.186035,68.395584 230.763046,68.471375 
	C230.647842,68.693283 230.305206,68.751137 229.724731,68.690544 
z"/>
<path fill="#F1993E" opacity="1.000000" stroke="none" 
	d="
M311.020264,68.365051 
	C310.860626,68.470123 310.519135,68.322723 310.228088,68.007980 
	C310.465179,67.931305 310.651764,68.021950 311.020264,68.365051 
z"/>
<path fill="#F09E45" opacity="1.000000" stroke="none" 
	d="
M230.760529,30.141529 
	C230.738174,30.300375 230.460144,30.387466 230.084290,30.330025 
	C230.159286,30.146917 230.332077,30.108345 230.760529,30.141529 
z"/>
<path fill="#FEFBF7" opacity="1.000000" stroke="none" 
	d="
M161.863312,36.182610 
	C166.647888,36.757530 168.166840,40.058407 169.858170,43.893028 
	C163.141846,43.893028 156.881989,43.893028 150.035950,43.893028 
	C152.559219,38.574444 156.080673,35.995491 161.863312,36.182610 
z"/>
<path fill="#FEFBF7" opacity="1.000000" stroke="none" 
	d="
M285.058960,44.285667 
	C281.951141,44.285835 279.320618,44.285835 276.637604,44.285835 
	C277.740814,39.081738 281.296600,36.135605 286.200256,36.151382 
	C290.773376,36.166100 293.976562,38.997219 294.887207,44.285500 
	C291.713867,44.285500 288.625092,44.285500 285.058960,44.285667 
z"/>
<path fill="#FFFEFD" opacity="1.000000" stroke="none" 
	d="
M193.895676,38.341454 
	C198.687317,35.770718 204.017288,35.518368 207.607162,38.699116 
	C212.282898,42.841965 213.155441,48.976925 210.955292,55.563217 
	C210.021698,57.089722 209.132980,58.204830 207.766159,59.688999 
	C206.352921,60.953102 205.417786,61.848148 204.482651,62.743195 
	C204.042068,62.547607 203.610138,62.204277 203.159668,62.177956 
	C190.833206,61.457706 185.404388,52.598156 190.940048,41.029022 
	C191.832230,40.636959 192.013870,40.371578 192.072403,40.021919 
	C192.635818,39.543762 193.199219,39.065601 193.895676,38.341454 
z"/>
<path fill="#F19332" opacity="1.000000" stroke="none" 
	d="
M204.720108,62.792847 
	C205.417786,61.848148 206.352921,60.953102 207.620438,59.963913 
	C206.954391,60.860680 205.955978,61.851593 204.720108,62.792847 
z"/>
<path fill="#F19332" opacity="1.000000" stroke="none" 
	d="
M191.859314,40.093460 
	C192.013870,40.371578 191.832230,40.636959 191.280075,40.810936 
	C191.164948,40.521473 191.369461,40.308537 191.859314,40.093460 
z"/>
<path fill="#F19434" opacity="1.000000" stroke="none" 
	d="
M217.012604,45.462372 
	C217.411072,46.046589 217.508774,46.627251 217.606476,47.207916 
	C217.196381,47.202778 216.786270,47.197639 216.376175,47.192501 
	C216.488068,46.614609 216.599945,46.036716 217.012604,45.462372 
z"/>
</svg>